<mxfile host="app.diagrams.net" modified="2023-04-07T18:31:14.868Z" agent="Mozilla/5.0 (Windows NT 10.0; WOW64) AppleWebKit/537.36 (KHTML, like Gecko) Chrome/111.0.0.0 Safari/537.36 OPR/97.0.0.0" etag="nqm4WNwf2gUESilcV_y_" version="21.1.2" type="github">
  <diagram name="Page-1" id="58cdce13-f638-feb5-8d6f-7d28b1aa9fa0">
    <mxGraphModel dx="2390" dy="1277" grid="1" gridSize="10" guides="1" tooltips="1" connect="1" arrows="1" fold="1" page="1" pageScale="1" pageWidth="1100" pageHeight="850" background="none" math="0" shadow="0">
      <root>
        <mxCell id="0" />
        <mxCell id="1" parent="0" />
        <mxCell id="YvCs8bPbRXpfsCYJ8i7O-2" value="Boards page" style="swimlane;fontStyle=1;align=center;verticalAlign=middle;childLayout=stackLayout;horizontal=1;startSize=30;horizontalStack=0;resizeParent=0;resizeLast=1;container=0;fontColor=#000000;collapsible=0;rounded=1;arcSize=30;strokeColor=#ff0000;fillColor=#ffffc0;swimlaneFillColor=#ffffc0;dropTarget=0;" parent="1" vertex="1">
          <mxGeometry x="115" y="93" width="160" height="60" as="geometry" />
        </mxCell>
        <mxCell id="YvCs8bPbRXpfsCYJ8i7O-3" value="do / click" style="text;html=1;strokeColor=none;fillColor=none;align=center;verticalAlign=middle;spacingLeft=4;spacingRight=4;whiteSpace=wrap;overflow=hidden;rotatable=0;fontColor=#000000;" parent="YvCs8bPbRXpfsCYJ8i7O-2" vertex="1">
          <mxGeometry y="30" width="160" height="30" as="geometry" />
        </mxCell>
        <mxCell id="YvCs8bPbRXpfsCYJ8i7O-4" value="click Create" style="edgeStyle=orthogonalEdgeStyle;html=1;verticalAlign=bottom;endArrow=open;endSize=8;strokeColor=#ff0000;rounded=0;" parent="1" source="YvCs8bPbRXpfsCYJ8i7O-2" edge="1">
          <mxGeometry relative="1" as="geometry">
            <mxPoint x="195" y="212" as="targetPoint" />
            <Array as="points">
              <mxPoint x="195" y="200" />
              <mxPoint x="195" y="200" />
            </Array>
          </mxGeometry>
        </mxCell>
        <mxCell id="YvCs8bPbRXpfsCYJ8i7O-5" value="" style="ellipse;html=1;shape=startState;fillColor=#000000;strokeColor=#ff0000;" parent="1" vertex="1">
          <mxGeometry x="180" y="10" width="30" height="30" as="geometry" />
        </mxCell>
        <mxCell id="YvCs8bPbRXpfsCYJ8i7O-6" value="open boards page" style="edgeStyle=orthogonalEdgeStyle;html=1;verticalAlign=bottom;endArrow=open;endSize=8;strokeColor=#ff0000;rounded=0;" parent="1" source="YvCs8bPbRXpfsCYJ8i7O-5" target="YvCs8bPbRXpfsCYJ8i7O-2" edge="1">
          <mxGeometry relative="1" as="geometry">
            <mxPoint x="195" y="100" as="targetPoint" />
          </mxGeometry>
        </mxCell>
        <mxCell id="YvCs8bPbRXpfsCYJ8i7O-17" value="" style="ellipse;html=1;shape=startState;fillColor=#000000;strokeColor=#ff0000;" parent="1" vertex="1">
          <mxGeometry x="132" y="277" width="30" height="30" as="geometry" />
        </mxCell>
        <mxCell id="YvCs8bPbRXpfsCYJ8i7O-18" value="" style="edgeStyle=orthogonalEdgeStyle;html=1;verticalAlign=bottom;endArrow=open;endSize=8;strokeColor=#ff0000;rounded=0;" parent="1" source="YvCs8bPbRXpfsCYJ8i7O-17" target="YvCs8bPbRXpfsCYJ8i7O-22" edge="1">
          <mxGeometry relative="1" as="geometry">
            <mxPoint x="145" y="372" as="targetPoint" />
          </mxGeometry>
        </mxCell>
        <mxCell id="YvCs8bPbRXpfsCYJ8i7O-22" value="Fill the name" style="rounded=1;whiteSpace=wrap;html=1;arcSize=40;fontColor=#000000;fillColor=#ffffc0;strokeColor=#ff0000;" parent="1" vertex="1">
          <mxGeometry x="196" y="272" width="120" height="40" as="geometry" />
        </mxCell>
        <mxCell id="YvCs8bPbRXpfsCYJ8i7O-23" value="" style="edgeStyle=orthogonalEdgeStyle;html=1;verticalAlign=bottom;endArrow=open;endSize=8;strokeColor=#ff0000;rounded=0;" parent="1" source="YvCs8bPbRXpfsCYJ8i7O-22" target="YvCs8bPbRXpfsCYJ8i7O-24" edge="1">
          <mxGeometry relative="1" as="geometry">
            <mxPoint x="300" y="352" as="targetPoint" />
          </mxGeometry>
        </mxCell>
        <mxCell id="YvCs8bPbRXpfsCYJ8i7O-24" value="Choose the bg" style="rounded=1;whiteSpace=wrap;html=1;arcSize=40;fontColor=#000000;fillColor=#ffffc0;strokeColor=#ff0000;" parent="1" vertex="1">
          <mxGeometry x="352" y="272" width="120" height="40" as="geometry" />
        </mxCell>
        <mxCell id="YvCs8bPbRXpfsCYJ8i7O-25" value="" style="edgeStyle=orthogonalEdgeStyle;html=1;verticalAlign=bottom;endArrow=open;endSize=8;strokeColor=#ff0000;rounded=0;" parent="1" source="YvCs8bPbRXpfsCYJ8i7O-24" target="YvCs8bPbRXpfsCYJ8i7O-26" edge="1">
          <mxGeometry relative="1" as="geometry">
            <mxPoint x="470" y="371" as="targetPoint" />
          </mxGeometry>
        </mxCell>
        <mxCell id="YvCs8bPbRXpfsCYJ8i7O-26" value="Choose type of visibility" style="rounded=1;whiteSpace=wrap;html=1;arcSize=40;fontColor=#000000;fillColor=#ffffc0;strokeColor=#ff0000;" parent="1" vertex="1">
          <mxGeometry x="512" y="272" width="120" height="40" as="geometry" />
        </mxCell>
        <mxCell id="YvCs8bPbRXpfsCYJ8i7O-27" value="" style="edgeStyle=orthogonalEdgeStyle;html=1;verticalAlign=bottom;endArrow=open;endSize=8;strokeColor=#ff0000;rounded=0;" parent="1" source="YvCs8bPbRXpfsCYJ8i7O-26" target="YvCs8bPbRXpfsCYJ8i7O-29" edge="1">
          <mxGeometry relative="1" as="geometry">
            <mxPoint x="650" y="371" as="targetPoint" />
          </mxGeometry>
        </mxCell>
        <mxCell id="YvCs8bPbRXpfsCYJ8i7O-29" value="" style="ellipse;html=1;shape=endState;fillColor=#000000;strokeColor=#ff0000;" parent="1" vertex="1">
          <mxGeometry x="686" y="277" width="30" height="30" as="geometry" />
        </mxCell>
        <mxCell id="YvCs8bPbRXpfsCYJ8i7O-43" value="yes" style="edgeStyle=orthogonalEdgeStyle;rounded=0;orthogonalLoop=1;jettySize=auto;html=1;strokeColor=#ff0000;" parent="1" source="YvCs8bPbRXpfsCYJ8i7O-32" target="YvCs8bPbRXpfsCYJ8i7O-40" edge="1">
          <mxGeometry relative="1" as="geometry" />
        </mxCell>
        <mxCell id="YvCs8bPbRXpfsCYJ8i7O-32" value="Create Board" style="swimlane;fontStyle=1;align=center;verticalAlign=middle;childLayout=stackLayout;horizontal=1;startSize=30;horizontalStack=0;resizeParent=0;resizeLast=1;container=0;fontColor=#000000;collapsible=0;rounded=1;arcSize=30;strokeColor=#ff0000;fillColor=#ffffc0;swimlaneFillColor=#ffffc0;dropTarget=0;" parent="1" vertex="1">
          <mxGeometry x="577" y="399" width="160" height="60" as="geometry" />
        </mxCell>
        <mxCell id="YvCs8bPbRXpfsCYJ8i7O-33" value="do / check validity" style="text;html=1;strokeColor=none;fillColor=none;align=center;verticalAlign=middle;spacingLeft=4;spacingRight=4;whiteSpace=wrap;overflow=hidden;rotatable=0;fontColor=#000000;" parent="YvCs8bPbRXpfsCYJ8i7O-32" vertex="1">
          <mxGeometry y="30" width="160" height="30" as="geometry" />
        </mxCell>
        <mxCell id="YvCs8bPbRXpfsCYJ8i7O-38" value="do / check validity" style="text;html=1;strokeColor=none;fillColor=none;align=center;verticalAlign=middle;spacingLeft=4;spacingRight=4;whiteSpace=wrap;overflow=hidden;rotatable=0;fontColor=#000000;" parent="YvCs8bPbRXpfsCYJ8i7O-32" vertex="1">
          <mxGeometry y="60" width="160" as="geometry" />
        </mxCell>
        <mxCell id="YvCs8bPbRXpfsCYJ8i7O-34" value="no" style="edgeStyle=orthogonalEdgeStyle;html=1;verticalAlign=bottom;endArrow=open;endSize=8;strokeColor=#ff0000;rounded=0;" parent="1" source="YvCs8bPbRXpfsCYJ8i7O-32" target="kxtd8z2NnlUB2vbuXtA5-8" edge="1">
          <mxGeometry x="-0.1618" y="1" relative="1" as="geometry">
            <mxPoint x="140.0588235294117" y="372" as="targetPoint" />
            <Array as="points">
              <mxPoint x="200" y="450" />
            </Array>
            <mxPoint as="offset" />
          </mxGeometry>
        </mxCell>
        <mxCell id="YvCs8bPbRXpfsCYJ8i7O-35" value="" style="edgeStyle=orthogonalEdgeStyle;html=1;verticalAlign=bottom;endArrow=open;endSize=8;strokeColor=#ff0000;rounded=0;" parent="1" source="kxtd8z2NnlUB2vbuXtA5-8" target="YvCs8bPbRXpfsCYJ8i7O-32" edge="1">
          <mxGeometry relative="1" as="geometry">
            <mxPoint x="205" y="222" as="targetPoint" />
            <mxPoint x="657" y="372" as="sourcePoint" />
            <Array as="points">
              <mxPoint x="657" y="380" />
              <mxPoint x="657" y="380" />
            </Array>
          </mxGeometry>
        </mxCell>
        <mxCell id="YvCs8bPbRXpfsCYJ8i7O-40" value="Save Board" style="swimlane;fontStyle=1;align=center;verticalAlign=middle;childLayout=stackLayout;horizontal=1;startSize=30;horizontalStack=0;resizeParent=0;resizeLast=1;container=0;fontColor=#000000;collapsible=0;rounded=1;arcSize=30;strokeColor=#ff0000;fillColor=#ffffc0;swimlaneFillColor=#ffffc0;dropTarget=0;" parent="1" vertex="1">
          <mxGeometry x="577" y="539" width="160" height="60" as="geometry" />
        </mxCell>
        <mxCell id="YvCs8bPbRXpfsCYJ8i7O-41" value="do / save" style="text;html=1;strokeColor=none;fillColor=none;align=center;verticalAlign=middle;spacingLeft=4;spacingRight=4;whiteSpace=wrap;overflow=hidden;rotatable=0;fontColor=#000000;" parent="YvCs8bPbRXpfsCYJ8i7O-40" vertex="1">
          <mxGeometry y="30" width="160" height="30" as="geometry" />
        </mxCell>
        <mxCell id="YvCs8bPbRXpfsCYJ8i7O-42" value="do / check validity" style="text;html=1;strokeColor=none;fillColor=none;align=center;verticalAlign=middle;spacingLeft=4;spacingRight=4;whiteSpace=wrap;overflow=hidden;rotatable=0;fontColor=#000000;" parent="YvCs8bPbRXpfsCYJ8i7O-40" vertex="1">
          <mxGeometry y="60" width="160" as="geometry" />
        </mxCell>
        <mxCell id="kxtd8z2NnlUB2vbuXtA5-6" value="Redirect user" style="edgeStyle=orthogonalEdgeStyle;rounded=0;orthogonalLoop=1;jettySize=auto;html=1;strokeColor=#FF3333;" edge="1" parent="1" source="YvCs8bPbRXpfsCYJ8i7O-41" target="kxtd8z2NnlUB2vbuXtA5-7">
          <mxGeometry relative="1" as="geometry">
            <mxPoint x="657" y="660" as="targetPoint" />
          </mxGeometry>
        </mxCell>
        <mxCell id="kxtd8z2NnlUB2vbuXtA5-7" value="" style="ellipse;html=1;shape=endState;fillColor=#000000;strokeColor=#ff0000;" vertex="1" parent="1">
          <mxGeometry x="642" y="640" width="30" height="30" as="geometry" />
        </mxCell>
        <mxCell id="kxtd8z2NnlUB2vbuXtA5-8" value="Filling the form" style="shape=umlFrame;whiteSpace=wrap;html=1;pointerEvents=0;width=120;height=28;" vertex="1" parent="1">
          <mxGeometry x="100" y="212" width="630" height="158" as="geometry" />
        </mxCell>
      </root>
    </mxGraphModel>
  </diagram>
</mxfile>
